<svg xmlns="http://www.w3.org/2000/svg" viewBox="0 0 1920.5 680"><defs><style>.cls-1{fill:#8791c4;}.cls-2{fill:#556cff;}.cls-3{fill:#0071c9;}</style></defs><g id="Capa_3" data-name="Capa 3"><path class="cls-1" d="M1896.73,989.31c-42.42-56.37-88.59-95.91-136.62-102.16-78.18-10.18-161.22-50.53-240.81-143.23-281.93-328.32-648.3,0-648.3,0S2029.87,1166.23,1896.73,989.31Z" transform="translate(0 -400)"/><path class="cls-1" d="M871,112" transform="translate(0 -400)"/></g><g id="Capa_2" data-name="Capa 2"><path class="cls-2" d="M750,694s323.42,220.17,669.21,42.09,501.29,31.52,501.29,31.52L1920,1080H750Z" transform="translate(0 -400)"/></g><g id="Capa_1" data-name="Capa 1"><path class="cls-3" d="M0,430.17V1080H1920V834.73S1505.36,939.22,874.93,614.52,0,430.17,0,430.17Z" transform="translate(0 -400)"/></g></svg>