<?xml version="1.0" encoding="utf-8"?>
<!-- Generator: Adobe Illustrator 26.0.0, SVG Export Plug-In . SVG Version: 6.00 Build 0)  -->
<svg version="1.1" id="Capa_1" xmlns="http://www.w3.org/2000/svg" xmlns:xlink="http://www.w3.org/1999/xlink" x="0px" y="0px"
	 viewBox="0 0 1200 120" style="enable-background:new 0 0 1200 120;" xml:space="preserve">
<style type="text/css">
	.st0{opacity:0.25;fill:#DBBFBF;enable-background:new    ;}
	.st1{opacity:0.5;fill:#DBBFBF;enable-background:new    ;}
	.st2{fill:#DBBFBF;}
</style>
<path class="st0" d="M1200,110V63.7c-47.8-22.2-103.6-32.2-158-28C971.6,41.1,905.7,69,835.2,73.2C761.4,77.6,687.7,56.3,617,37.9
	c-69.3-18-138.3-24.9-209.4-13.1c-36.2,6-69.8,17.8-104.5,29.3C210.5,85,87,124.3,0,57.5V110H1200z"/>
<path class="st1" d="M1200,110V94.2c-13-21.1-27.6-41-47.7-56.2C1100.6-1.3,1035-1,975.4,18.4c-31.1,10.2-60.1,26.1-89.7,39.8
	c-40.9,19-84.7,46-130.8,49.7c-36.3,2.9-70.9-9.4-98.6-31.6c-31.8-25.4-62.3-62-103.6-73C512.2-7.5,471.3,10,433.6,27.6
	s-75.2,39-116.9,43c-59.7,5.8-113.3-22.9-168.9-38.8c-30.2-8.7-59-6.2-87.1,7.5C38.2,50.2,12.7,66.2,0,88.5V110H1200z"/>
<path class="st2" d="M0,19.1l0,5.6c149.9,53.4,504.2,20.4,603.4,10.5S715.9,47.4,769,70.6c58.9,25.7,117,43.7,182.2,38.5
	c86.5-7,172.5-45.7,248.8-84.8v-5.2L0,19.1z"/>
</svg>
