<svg id="Capa_1" data-name="Capa 1" xmlns="http://www.w3.org/2000/svg" viewBox="0 0 1200 120"><defs><style>.cls-1,.cls-2{fill:#dbbfbf;}.cls-1{isolation:isolate;opacity:0.25;}</style></defs><path class="cls-1" d="M1200,120V73.71c-47.79-22.2-103.59-32.17-158-28C971.64,51.08,905.67,79,835.2,83.21,761.36,87.57,687.66,66.33,617,48,547.73,30,478.7,23.07,407.6,34.87c-36.15,6-69.85,17.84-104.45,29.34C210.51,95,87,134.29,0,67.53V120Z" transform="translate(0 0)"/><path class="cls-2" d="M1200,120v-7.43C1050.07,42.11,695.84,85.6,596.56,98.7S484.08,82.55,431,52C372.07,18.06,314-5.72,248.8,1.2,162.27,10.44,76.34,61.52,0,113.11V120Z" transform="translate(0 0)"/></svg>